HIERARCHY
ROOT Hips
{
  OFFSET 0.0 0.0 0.0
  CHANNELS 6 XPOSITION YPOSITION ZPOSITION ZROTATION XROTATION YROTATION 
  JOINT LeftUpLeg
  {
    OFFSET 0.08945800000000001 -0.0866707 0.0010165200000000001
    CHANNELS 3 ZROTATION XROTATION YROTATION 
    JOINT LeftLeg
    {
      OFFSET 0.0 -0.444227 0.013727000000000001
      CHANNELS 3 ZROTATION XROTATION YROTATION 
      JOINT LeftFoot
      {
        OFFSET -0.0025354900000000005 -0.42092399999999996 -0.014605900000000002
        CHANNELS 3 ZROTATION XROTATION YROTATION 
        End Site
        {
          OFFSET -0.0004 -0.0441509 0.08499100000000001
        }
      }
    }
  }
  JOINT Spine
  {
    OFFSET 0.0 0.118905 0.0
    CHANNELS 3 ZROTATION XROTATION YROTATION 
    JOINT Spine1
    {
      OFFSET 0.0 0.25657399999999997 0.00127663
      CHANNELS 3 ZROTATION XROTATION YROTATION 
      End Site
      {
        OFFSET -0.0029 0.21508359999999999 0.02525291
      }
      JOINT RightArm
      {
        OFFSET -0.162727 -0.05365632 0.0010212299999999997
        CHANNELS 3 ZROTATION XROTATION YROTATION 
        JOINT RightForeArm
        {
          OFFSET -0.26364 0.00099144 -0.0142434
          CHANNELS 3 ZROTATION XROTATION YROTATION 
          End Site
          {
            OFFSET -0.220324 0.0008536199999999999 0.010221599999999999
          }
        }
      }
      JOINT LeftArm
      {
        OFFSET 0.162727 -0.053656319900000006 0.0010212299999999997
        CHANNELS 3 ZROTATION XROTATION YROTATION 
        JOINT LeftForeArm
        {
          OFFSET 0.26259699999999997 0.00099144 -0.0142434
          CHANNELS 3 ZROTATION XROTATION YROTATION 
          End Site
          {
            OFFSET 0.220902 0.0008536199999999999 0.010221599999999999
          }
        }
      }
    }
  }
  JOINT RightUpLeg
  {
    OFFSET -0.08945800000000001 -0.0866707 0.0010165200000000001
    CHANNELS 3 ZROTATION XROTATION YROTATION 
    JOINT RightLeg
    {
      OFFSET 0.0 -0.444227 0.013727000000000001
      CHANNELS 3 ZROTATION XROTATION YROTATION 
      JOINT RightFoot
      {
        OFFSET 0.0025354900000000005 -0.42092399999999996 -0.014605900000000002
        CHANNELS 3 ZROTATION XROTATION YROTATION 
        End Site
        {
          OFFSET 0.0004 -0.0441509 0.08499100000000001
        }
      }
    }
  }
}
MOTION
Frames: 5
Frame Time: 0.041667
-1.98559 1.0201900000000002 0.0420038 -1.337631717574702 -0.51414489101109 92.41748648950166 0.5021905658596867 -2.380403314906307 0.6214703214821448 2.232560028339973 9.836940041716268 7.29394450050463 0.18964045576945526 -10.278142941342411 -1.1951292120524946 0.2552789872398877 0.3246470021003454 0.22772904569667105 -3.042810001652953 0.2073939983923828 0.7953589869835888 1.5018282912830447 -32.60846032413768 -18.12034331142938 -6.3073800239569415 10.63000013643562 8.72524991466853 10.886559117134222 -41.43518550553144 12.161279883254641 1.0713999083508905 12.13159929621635 -2.6038599972358556 1.5537899158892687 -3.5804596546713197 -0.7321560449422873 -1.5029900637721816 13.240600036278396 -5.633440562796729 -2.684955046694829 -11.986247748036602 1.1261718356354573 
-1.98583 1.0201900000000002 0.042107 -1.3239966322789465 -0.5171410495400512 92.49065830608 0.49115639525553106 -2.3760189737893933 0.5855603351165383 2.2768499631260974 9.825630102224373 7.2500443133880195 0.1549155739259121 -10.239589938572275 -1.1927964890075236 0.24515800759167752 0.30013702834631334 0.23098800642611916 -3.0796300573646107 0.22636199400646356 0.8056049644296954 1.5584433024264575 -32.54236458353947 -18.155552936600795 -6.293380270592531 10.5906001902084 8.74904970883144 10.706955024040505 -41.47522748954064 11.940824428735079 1.0652300063745475 12.133000338769849 -2.697079913132071 1.5578498230206068 -3.5502098140543907 -0.7346159802605498 -1.4932300436133508 13.188499353289538 -5.697579881084557 -2.630315881212254 -11.952785797519063 1.1241430560085521 
-1.9865199999999998 1.0201900000000002 0.042368100000000006 -1.3231728474320195 -0.5265076934913716 92.49016653245975 0.5101007786922077 -2.409445919587436 0.5840605749851916 2.2939898959614213 9.802129982611298 7.254244025953931 0.12844476225091778 -10.188348151871546 -1.1896968637848073 0.19813498328134294 0.21860898224655861 0.2937790560439571 -3.040600435456454 0.36048799288316424 0.8662489334097693 1.5848791227221686 -32.68140332937883 -18.168057305423797 -6.467390011869184 10.899198382193331 8.704620182054153 10.333563096267895 -41.6294155949591 11.557124891731272 1.0948800710049844 12.508900653515147 -2.819810088224149 1.5834900329997172 -3.587559849756959 -0.7083469659909749 -1.4893300055972736 13.171499012445377 -5.7240297886454305 -2.6564729444124637 -11.904451110083821 1.121213651906557 
-1.9877000000000002 1.0201900000000002 0.0427125 -1.3932256154371976 -0.5535172496773639 92.37798750553146 0.5752276462844842 -2.6052371341272593 0.6368167426909586 2.2562601444296826 9.900370300990884 7.32304452146347 0.14481844657894408 -10.180513071119895 -1.1892229126894318 0.19105099655476868 0.22084500208587832 0.389265020599456 -3.020539956420715 0.4025449894192235 0.9594749858040666 1.6853411735727126 -32.939925989463816 -18.03636955067866 -6.6507998009910665 11.347099989847965 8.688039897843947 9.906652367480003 -41.76806843511036 11.128254752425232 1.070860003241342 13.067199462498344 -2.940109996632172 1.6447499996655617 -3.781030080639448 -0.6166889756197244 -1.5050599312558128 13.22760047874057 -5.71097089383919 -2.7164441397592913 -11.860461276734354 1.1187406965401894 
-1.98893 1.0201900000000002 0.043018400000000005 -1.4791146039198733 -0.6051557209584818 92.2479680244911 0.665558765687754 -2.878660919103683 0.706303778933789 2.2196200215139723 10.11580044382861 7.390843540485955 0.1464123752754297 -10.202595072706547 -1.190558321393875 0.2890000046982109 0.35183200877064247 0.44825501658332895 -3.115129965575752 0.28356298735589563 1.026710087333203 1.9260315971169673 -33.065799545677976 -17.736580595175752 -6.628039903129292 11.818899575634827 8.837919861443414 9.572486216110775 -41.75237266039767 10.808840955889586 0.928980005428958 13.262300401045172 -3.069459905690462 1.7379997976393953 -3.9785100594515574 -0.48839000855911724 -1.5363998273755932 13.24399976293777 -5.707309912444063 -2.7120956571355204 -11.77711674716092 1.1184903274184261 
